<svg width="800" height="800" viewBox="0 0 24 24" fill="none" xmlns="http://www.w3.org/2000/svg"><path fill-rule="evenodd" clip-rule="evenodd" d="M23 5.5a4.5 4.5 0 0 1-7.977 2.857l-5.15 2.575a4.511 4.511 0 0 1-.001 2.136l5.15 2.575a4.5 4.5 0 1 1-.895 1.788l-5.151-2.575a4.5 4.5 0 1 1 .003-5.713l5.149-2.575A4.5 4.5 0 1 1 23 5.5Zm-6.997 0a2.497 2.497 0 1 0 4.994 0 2.497 2.497 0 0 0-4.994 0Zm0 13a2.497 2.497 0 1 0 4.994 0 2.497 2.497 0 0 0-4.994 0ZM5.5 14.494a2.497 2.497 0 1 1 0-4.994 2.497 2.497 0 0 1 0 4.994Z" fill="#0F0F0F"/></svg>